BBC Proms 2012 - 32. Bernstein Mass

Bernstein
Mass (103 mins)
Morten Frank Larsen bass-baritone
Julius Foo treble
Ysgol Gynradd Gymraeg Pwll Coch, Caerdydd
Ysgol Gynradd Gymunedol Gymraeg, Llantrisant
Ysgol Gynradd Dolau, Llanharan
Ysgol Gynradd Gymraeg, Rhydaman
National Youth Choir of Wales
Aelwyd y Waun Ddyfal
Musicians from the Royal Welsh College of Music & Drama
BBC National Chorus of Wales
BBC National Orchestra of Wales
National Youth Orchestra of Wales
Kristjan JΓÇ₧rvi conductor
Thomas Kiemle stage director

Less a religious work than a theatrical happening, Bernstein's Mass receives its first complete Proms performance, conducted by one of its most ardent champions, and supported by a spectrum of talented Welsh children and adult musicians. Using a mix of highbrow and vernacular styles, Bernstein created a rich, quintessentially American score that has recently begun to emerge as a modern classic.

Video
ID                                       : 1
Format                                   : AVC
Format/Info                              : Advanced Video Codec
Format profile                           : Main@L3.0
Format settings, CABAC                   : Yes
Format settings, ReFrames                : 4 frames
Codec ID                                 : avc1
Codec ID/Info                            : Advanced Video Coding
Duration                                 : 1h 56mn
Bit rate mode                            : Constant
Bit rate                                 : 1 404 Kbps
Width                                    : 832 pixels
Height                                   : 468 pixels
Display aspect ratio                     : 16:9
Frame rate mode                          : Constant
Frame rate                               : 25.000 fps
Standard                                 : PAL
Color space                              : YUV
Chroma subsampling                       : 4:2:0
Bit depth                                : 8 bits
Scan type                                : Progressive
Bits/(Pixel*Frame)                       : 0.144
Stream size                              : 1.14 GiB (93%)

Audio
ID                                       : 2
Format                                   : AAC
Format/Info                              : Advanced Audio Codec
Format profile                           : HE-AAC / LC
Codec ID                                 : 40
Duration                                 : 1h 56mn
Bit rate mode                            : Constant
Bit rate                                 : 96.0 Kbps
Channel(s)                               : 2 channels
Channel positions                        : Front: L R
Sampling rate                            : 48.0 KHz / 24.0 KHz
Compression mode                         : Lossy
Stream size                              : 78.8 MiB (6%)
